{"title":"Aloha.2015.READNFO.HD-TS.XVID.AC3.HQ.Hive-CM8","uid":12066512,"size":1175765587,"categoryP":"video","categoryS":"movies","magnet":"?xt=urn:btih:1b831fb92367797207d480b1fa593d922475dcc7&amp;dn=Aloha.2015.READNFO.HD-TS.XVID.AC3.HQ.Hive-CM8&amp;tr=udp%3A%2F%2Ftracker.openbittorrent.com%3A80&amp;tr=udp%3A%2F%2Fopen.demonii.com%3A1337&amp;tr=udp%3A%2F%2Ftracker.coppersurfer.tk%3A6969&amp;tr=udp%3A%2F%2Fexodus.desync.com%3A6969","seeders":16,"leechers":4,"uploader":"xxxlavalxxx","files":4,"time":1435399409,"description":" &lt;a href=&quot;http://extraimago.com/image/s4N&quot; rel=&quot;nofollow&quot; target=&quot;_NEW&quot;&gt;http://extraimago.com/image/s4N&lt;/a&gt;\n &lt;a href=&quot;\nhttp://www.imdb.com/title/tt1243974/&quot; rel=&quot;nofollow&quot; target=&quot;_NEW&quot;&gt;\nhttp://www.imdb.com/title/tt1243974/&lt;/a&gt;\n\n\nA celebrated military contractor returns to the site of his greatest career triumphs and reconnects with a long-ago love while unexpectedly falling for the hard-charging Air Force watch-dog assigned to him.\n\nDirector: Cameron Crowe\nWriter: Cameron Crowe\nStars: Bradley Cooper, Rachel McAdams, Emma Stone\nGenres: Comedy | Drama | Romance\nCountry: USA\nLanguage: English\n\n\nAloha.2015.READNFO.HD-TS.XVID.AC3.HQ.Hive-CM8\n\nThx Hive\n\nSources:\nVideo: Portuguese HDCAM thx\nAudio: Sweet Line Big Thx to S4NDM4N\n\nNotes:\n\nnope its not ted yet, but its a release to keep you warm till then\n\nWell had to use the Readnfo tag on this, technically its a perfect hdcam and a perfect line, just some missing video is the reason\nis it much? that depends how you see it, 3 spots miss 4 min each\nAt 16:38 missing video is them driving to the forest nothing much missed\nAt 18:13 missing video is them walking through the forest to meet the king a little missing after their chat and walking to the bar for a drink\n\nhad line had video why not combine them for you to watch\nProblem is, there is only 1 cam out and there wont be coming another one till retail aug 28th\nNeither Russia or USA have cammed that movie, portuguese have done this cam 2 weeks ago,and didnt proper it till now\nmovie hits europe after usa retail date, so if you want to watch this movie you have to live with this one or wait till retail on aug 28th\nits still a good watch\n\nEncode:\n\nspent cpl hours on that video, cause it needed rotating and fixing perspective\ncam consists of 3 positions, centered, a bit too high and a bit too low, so had to cut the movie in pieces and fix them each individually\ncouldnt do same resolution for all 3 parts without getting eggheads or shrinked ones, but i didnt want to crop any video away\nso i used the one which had the max height and added virtual borders for the parts that had too less and centered them\ndoing that you dont loose any video on any side, no eggheads and not shrinked ones, or yellow people lol\ntechnically you wont see the ar change, cause i hid them in transitions\n\nAudio from S4NDM4N was superb, cant be done better, there was no reason to clean it, synced lipsync to my video\n\nhad this for myself for a while i got some free time window to share today\nts quilty lol\nget a new translator nobody knows what ya saying in ya nfo\ninstead of reproducing same thing that already been done i work on this new source so you guys have new thing and got it pretty sexy\noh i wasnt going to do this but was asked to lol by who ffs but nonetheless i used the mystery vobs passed from a friend lol\n\nstill got very nice\nenjoy\n\nVideo: 712x384 @bitrate 1700 2pass\nAudio: English Line 2.0 Stereo\nSample: yes included\nPS: coming next is ted,minions,terminator\n\nyou have access to 0 day HDCams? msg me\n &lt;a href=&quot;\nhttp://www.imdb.com/title/tt1243974/&quot; rel=&quot;nofollow&quot; target=&quot;_NEW&quot;&gt;\nhttp://www.imdb.com/title/tt1243974/&lt;/a&gt;\n\nGeneral\nComplete name: Aloha.2015.READNFO.HD-TS.XVID.AC3.HQ.Hive-CM8.avi\nFormat: AVI\nFormat/Info: Audio Video Interleave\nFile size: 1.08 GiB\nDuration: 1h 18mn\nOverall bit rate: 1 970 Kbps\nWriting application: Nandub v1.0rc2\nWriting library: Nandub build 1853/release\n\nVideo\nID: 0\nFormat: MPEG-4 Visual\nFormat profile: Advanced Simple@L5\nFormat settings, BVOP: 2\nFormat settings, QPel: Yes\nFormat settings, GMC: No warppoints\nFormat settings, Matrix: Default (H.263)\nMuxing mode: Packed bitstream\nCodec ID: XVID\nCodec ID/Hint: XviD\nDuration: 1h 18mn\nBit rate: 1 702 Kbps\nWidth: 712 pixels\nHeight: 384 pixels\nDisplay aspect ratio: 1.85:1\nFrame rate: 30.000 fps\nColor space: YUV\nChroma subsampling: 4:2:0\nBit depth: 8 bits\nScan type: Progressive\nCompression mode: Lossy\nBits/(Pixel*Frame): 0.207\nStream size: 953 MiB (86%)\nWriting library: XviD 1.2.1 (UTC 2008-12-04)\n\nAudio\nID: 1\nFormat: AC-3\nFormat/Info: Audio Coding 3\nMode extension: CM (complete main)\nFormat settings, Endianness: Big\nCodec ID: 2000\nDuration: 1h 18mn\nBit rate mode: Constant\nBit rate: 256 Kbps\nChannel(s): 2 channels\nChannel positions: Front: L R\nSampling rate: 48.0 KHz\nBit depth: 16 bits\nCompression mode: Lossy\nDelay relative to video: 50ms\nStream size: 143 MiB (13%)\nAlignment: Split accross interleaves\nInterleave, duration: 33 ms (1.00 video frame)\nInterleave, preload duration: 500 ms\n\n &lt;a href=&quot;\nhttp://extraimago.com/image/s4T&quot; rel=&quot;nofollow&quot; target=&quot;_NEW&quot;&gt;\nhttp://extraimago.com/image/s4T&lt;/a&gt; &lt;a href=&quot;\nhttp://extraimago.com/image/s4j&quot; rel=&quot;nofollow&quot; target=&quot;_NEW&quot;&gt;\nhttp://extraimago.com/image/s4j&lt;/a&gt; &lt;a href=&quot;\nhttp://extraimago.com/image/s4n&quot; rel=&quot;nofollow&quot; target=&quot;_NEW&quot;&gt;\nhttp://extraimago.com/image/s4n&lt;/a&gt; &lt;a href=&quot;\nhttp://extraimago.com/image/s4s&quot; rel=&quot;nofollow&quot; target=&quot;_NEW&quot;&gt;\nhttp://extraimago.com/image/s4s&lt;/a&gt; &lt;a href=&quot;\nhttp://extraimago.com/image/s47&quot; rel=&quot;nofollow&quot; target=&quot;_NEW&quot;&gt;\nhttp://extraimago.com/image/s47&lt;/a&gt; &lt;a href=&quot;\nhttp://extraimago.com/image/s4c&quot; rel=&quot;nofollow&quot; target=&quot;_NEW&quot;&gt;\nhttp://extraimago.com/image/s4c&lt;/a&gt;","torrent":{"xt":"urn:btih:1b831fb92367797207d480b1fa593d922475dcc7","amp;dn":"Aloha.2015.READNFO.HD-TS.XVID.AC3.HQ.Hive-CM8","amp;tr":["udp%3A%2F%2Ftracker.openbittorrent.com%3A80","udp%3A%2F%2Fopen.demonii.com%3A1337","udp%3A%2F%2Ftracker.coppersurfer.tk%3A6969","udp%3A%2F%2Fexodus.desync.com%3A6969"],"infoHash":"1b831fb92367797207d480b1fa593d922475dcc7","infoHashBuffer":{"type":"Buffer","data":[27,131,31,185,35,103,121,114,7,212,128,177,250,89,61,146,36,117,220,199]},"announce":[],"urlList":[]}}